<?xml version="1.0" standalone="no"?>
<!DOCTYPE svg PUBLIC "-//W3C//DTD SVG 20010904//EN"
 "http://www.w3.org/TR/2001/REC-SVG-20010904/DTD/svg10.dtd">
<svg version="1.0" xmlns="http://www.w3.org/2000/svg"
 width="260.000000pt" height="260.000000pt" viewBox="0 0 260.000000 260.000000"
 preserveAspectRatio="xMidYMid meet">
<metadata>
Created by potrace 1.14, written by Peter Selinger 2001-2017
</metadata>
<g transform="translate(0.000000,260.000000) scale(0.100000,-0.100000)"
fill="#000000" stroke="none">
<path d="M600 2395 l0 -86 -277 1 -278 1 -6 -23 c-11 -37 -10 -344 1 -373 l10
-26 275 3 275 3 0 -72 0 -73 65 0 65 0 0 73 0 72 904 -3 904 -2 6 22 c7 29 8
336 0 374 l-5 29 -905 -3 -904 -2 0 85 0 85 -65 0 -65 0 0 -85z m87 -418 c-1
-73 -3 -10 -3 138 0 149 2 208 3 132 2 -76 2 -198 0 -270z m-87 128 l0 -175
-274 0 c-240 0 -275 2 -280 16 -8 20 -8 278 0 298 5 14 39 16 275 16 173 0
269 4 269 10 0 6 2 10 5 10 3 0 5 -79 5 -175z"/>
<path d="M1870 1555 l0 -85 -904 0 c-815 0 -904 -2 -910 -16 -3 -9 -6 -101 -6
-204 0 -178 1 -190 20 -200 13 -7 304 -9 910 -8 l890 3 0 -72 0 -73 65 0 65 0
0 73 0 72 264 -3 c302 -3 290 -6 302 84 8 64 0 300 -11 327 -7 16 -30 17 -281
17 l-273 0 -3 83 -3 82 -62 3 -63 3 0 -86z m87 -422 c-1 -76 -3 -14 -3 137 0
151 2 213 3 138 2 -76 2 -200 0 -275z m325 279 l266 3 6 -50 c8 -66 8 -180 0
-239 l-7 -46 -273 0 -274 0 0 178 c0 97 4 171 8 164 7 -10 67 -12 274 -10z"/>
<path d="M600 705 l0 -85 -279 0 -278 0 -7 -31 c-10 -50 -7 -335 4 -363 l10
-26 275 0 275 0 0 -70 0 -70 65 0 65 0 0 73 0 72 904 -3 904 -2 6 22 c8 30 8
346 0 376 l-6 22 -904 0 -904 0 0 85 0 85 -65 0 -65 0 0 -85z m87 -418 c-1
-73 -3 -10 -3 138 0 149 2 208 3 132 2 -76 2 -198 0 -270z m-87 128 l0 -175
-277 2 -278 3 -3 140 c-1 77 0 150 3 162 5 22 6 22 273 23 163 0 268 4 270 10
10 28 12 -5 12 -165z"/>
</g>
</svg>
